<?xml version="1.0" encoding="UTF-8"?>
<svg id="Layer_1" data-name="Layer 1" xmlns="http://www.w3.org/2000/svg" viewBox="0 0 124.48 141.97">
  <defs>
    <style>
      .cls-1 {
        fill: #ff8b00;
      }
    </style>
  </defs>
  <g id="cBTC">
    <path class="cls-1" d="M84.69,65.71c1.47-4.46.45-8.19-3.09-11.18-2.06-1.75-4.48-2.84-6.98-3.74-.73-.26-.86-.56-.66-1.29.67-2.46,1.25-4.94,1.89-7.41.19-.71.21-1.14-.72-1.29-1.32-.22-2.63-.59-3.91-.98-.68-.2-.91-.02-1.07.64-.59,2.52-1.27,5.01-1.85,7.53-.15.67-.38.77-1,.6-1.02-.29-2.07-.5-3.1-.72-.5-.11-.68-.28-.52-.87.68-2.53,1.28-5.08,1.93-7.62.16-.61.14-.96-.63-1.11-1.35-.26-2.69-.63-4.02-1.01-.64-.18-.91-.11-1.08.62-.59,2.59-1.27,5.16-1.9,7.74-.15.62-.34.83-1.07.64-3.25-.86-6.53-1.6-9.79-2.46-.76-.2-.97-.03-1.12.7-.31,1.49-.71,2.96-1.11,4.43-.15.56-.09.81.55.95,1.28.27,2.55.6,3.8,1,1.83.58,2.59,1.95,2.13,3.8-2.03,8.18-4.08,16.35-6.13,24.52-.43,1.71-1.36,2.25-3.08,1.84-1-.24-2-.46-2.98-.77-.63-.2-.94-.05-1.19.57-.66,1.64-1.35,3.27-2.12,4.87-.38.8-.1.99.63,1.17,3.17.76,6.32,1.58,9.48,2.35.73.18,1.05.37.8,1.26-.71,2.52-1.28,5.08-1.94,7.62-.18.69-.08,1,.69,1.15,1.35.26,2.69.64,4.02,1.01.62.17.86.01,1.01-.63.6-2.59,1.28-5.15,1.9-7.74.15-.64.37-.89,1.08-.65.94.32,1.91.54,2.88.75.69.14.8.44.62,1.11-.67,2.53-1.26,5.09-1.93,7.62-.18.69-.02.94.66,1.08,1.32.28,2.62.6,3.91.99.78.24,1.03,0,1.2-.76.56-2.45,1.22-4.88,1.79-7.32.19-.83.42-1.26,1.44-1.05,1.45.31,2.94.46,4.42.57,3.37.25,6.7.1,9.65-1.79,3.74-2.4,5.19-6.14,5.77-10.32.41-2.95-.43-5.54-2.55-7.67-.96-.96-2.09-1.69-3.43-2.45.3-.14.42-.21.55-.24,3.15-.9,5.14-2.96,6.15-6.06ZM72.14,81.79c-.55,2.3-2.14,3.5-4.35,4-.9.21-1.82.28-2.39.25-3.76-.03-7.01-.91-10.28-1.73-.46-.12-.53-.31-.42-.75.96-3.77,1.91-7.55,2.83-11.33.13-.52.32-.61.8-.5,3.24.76,6.49,1.48,9.5,2.97.86.43,1.67.94,2.39,1.57,1.69,1.47,2.44,3.28,1.9,5.51ZM74.02,62.61c-.24,2.62-2.02,4.37-4.81,4.67-.6.06-1.2.06-1.81.09-2.61-.06-5.12-.72-7.63-1.35-.5-.13-.62-.34-.49-.82.86-3.4,1.71-6.8,2.55-10.2.1-.4.27-.54.66-.45,2.83.67,5.69,1.24,8.24,2.71,2.05,1.18,3.52,2.74,3.28,5.36Z"/>
    <path class="cls-1" d="M112.82,83.22c-5.5,22.84-26.05,39.81-50.58,39.81-28.74,0-52.04-23.3-52.04-52.04S33.5,18.95,62.24,18.95c25.93,0,47.42,18.96,51.38,43.77h10.86v-24.38c0-2.03-1.08-3.91-2.84-4.93L65.08.76c-1.76-1.02-3.93-1.02-5.69,0L2.84,33.41c-1.76,1.02-2.84,2.89-2.84,4.93v65.3c0,2.03,1.08,3.91,2.84,4.93l56.55,32.65c1.76,1.02,3.93,1.02,5.69,0l56.55-32.65c1.76-1.02,2.84-2.89,2.84-4.93v-20.42h-11.66Z"/>
  </g>
</svg>