<?xml version="1.0" encoding="UTF-8"?>
<svg id="Layer_1" data-name="Layer 1" xmlns="http://www.w3.org/2000/svg" viewBox="0 0 124.48 141.97">
  <defs>
    <style>
      .cls-1 {
        fill: #345d9d;
      }
    </style>
  </defs>
  <g id="cBTC">
    <path class="cls-1" d="M112.82,83.22c-5.5,22.84-26.05,39.81-50.58,39.81-28.74,0-52.04-23.3-52.04-52.04S33.5,18.95,62.24,18.95c25.93,0,47.42,18.96,51.38,43.77h10.86v-24.38c0-2.03-1.08-3.91-2.84-4.93L65.08.76c-1.76-1.02-3.93-1.02-5.69,0L2.84,33.41c-1.76,1.02-2.84,2.89-2.84,4.93v65.3c0,2.03,1.08,3.91,2.84,4.93l56.55,32.65c1.76,1.02,3.93,1.02,5.69,0l56.55-32.65c1.76-1.02,2.84-2.89,2.84-4.93v-20.42h-11.66Z"/>
  </g>
  <path class="cls-1" d="M59.62,90.08l4.3-16.19,10.18-3.72,2.53-9.52-.09-.24-10.02,3.66,7.22-27.19h-20.48l-9.44,35.48-7.88,2.88-2.61,9.81,7.88-2.88-5.57,20.91h54.5l3.49-13.01h-34.02"/>
</svg>