<svg width="256" height="256" viewBox="0 0 256 256" fill="none" xmlns="http://www.w3.org/2000/svg">
<g clip-path="url(#clip0_603_472)">
<path d="M128 256C198.934 256 256 198.934 256 128C256 57.0662 198.934 0 128 0C57.0662 0 0 57.0662 0 128C0 198.934 57.0662 256 128 256Z" fill="#2775CA"/>
<path d="M163.201 148.266C163.201 129.6 152.001 123.2 129.601 120.534C113.601 118.4 110.401 114.134 110.401 106.666C110.401 99.1989 115.734 94.4002 126.401 94.4002C136.001 94.4002 141.334 97.6002 144.001 105.6C144.534 107.2 146.134 108.266 147.734 108.266H156.267C158.401 108.266 160.001 106.666 160.001 104.534V104C157.867 92.2664 148.267 83.2002 136.001 82.1339V69.3339C136.001 67.2002 134.401 65.6002 131.734 65.0664H123.734C121.601 65.0664 120.001 66.6664 119.467 69.3339V81.6002C103.467 83.7339 93.3344 94.4002 93.3344 107.734C93.3344 125.334 104.001 132.266 126.401 134.934C141.334 137.6 146.134 140.8 146.134 149.334C146.134 157.868 138.667 163.734 128.534 163.734C114.667 163.734 109.867 157.866 108.267 149.866C107.734 147.734 106.134 146.666 104.534 146.666H95.4669C93.3344 146.666 91.7344 148.266 91.7344 150.4V150.934C93.8669 164.266 102.401 173.866 120.001 176.534V189.334C120.001 191.466 121.601 193.066 124.267 193.6H132.267C134.401 193.6 136.001 192 136.534 189.334V176.534C152.534 173.866 163.201 162.666 163.201 148.266Z" fill="white"/>
<path d="M100.801 204.266C59.2006 189.334 37.8669 142.934 53.3344 101.866C61.3344 79.4665 78.9344 62.4002 100.801 54.4002C102.934 53.334 104.001 51.734 104.001 49.0665V41.6002C104.001 39.4665 102.934 37.8665 100.801 37.334C100.267 37.334 99.2006 37.334 98.6669 37.8665C48.0006 53.8665 20.2669 107.734 36.2669 158.4C45.8669 188.266 68.8006 211.2 98.6669 220.8C100.801 221.866 102.934 220.8 103.467 218.666C104.001 218.134 104.001 217.6 104.001 216.534V209.066C104.001 207.466 102.401 205.334 100.801 204.266ZM157.334 37.8665C155.201 36.8002 153.067 37.8665 152.534 40.0002C152.001 40.534 152.001 41.0665 152.001 42.134V49.6002C152.001 51.734 153.601 53.8665 155.201 54.934C196.801 69.8665 218.134 116.266 202.667 157.334C194.667 179.734 177.067 196.8 155.201 204.8C153.067 205.866 152.001 207.466 152.001 210.134V217.6C152.001 219.734 153.067 221.334 155.201 221.866C155.734 221.866 156.801 221.866 157.334 221.334C208.001 205.334 235.734 151.466 219.734 100.8C210.134 70.4002 186.667 47.4665 157.334 37.8665Z" fill="white"/>
</g>
<defs>
<clipPath id="clip0_603_472">
<rect width="256" height="256" fill="white"/>
</clipPath>
</defs>
</svg>
